<?xml version="1.0" standalone="no"?><!DOCTYPE svg PUBLIC "-//W3C//DTD SVG 1.1//EN" "http://www.w3.org/Graphics/SVG/1.1/DTD/svg11.dtd"><svg t="1598877375220" class="icon" viewBox="0 0 1024 1024" version="1.1" xmlns="http://www.w3.org/2000/svg" p-id="2232" xmlns:xlink="http://www.w3.org/1999/xlink" width="200" height="200"><defs><style type="text/css"></style></defs><path d="M825.6 744.533333c-17.066667 0-32 14.933333-32 32 0 57.6-46.933333 104.533333-104.533333 104.533334H300.8c-51.2 0-93.866667-42.666667-93.866667-93.866667V292.266667c0-51.2 42.666667-93.866667 93.866667-93.866667h398.933333c51.2 0 93.866667 42.666667 93.866667 93.866667 0 17.066667 14.933333 32 32 32s32-14.933333 32-32c0-87.466667-70.4-157.866667-157.866667-157.866667H300.8c-87.466667 0-157.866667 70.4-157.866667 157.866667v494.933333c0 87.466667 70.4 157.866667 157.866667 157.866667h388.266667c93.866667 0 168.533333-76.8 168.533333-168.533334 0-19.2-14.933333-32-32-32z" p-id="2233"></path><path d="M326.4 456.533333H661.333333c17.066667 0 32-14.933333 32-32s-14.933333-32-32-32H326.4c-17.066667 0-32 14.933333-32 32s14.933333 32 32 32zM326.4 669.866667h345.6c17.066667 0 32-14.933333 32-32s-14.933333-32-32-32H326.4c-17.066667 0-32 14.933333-32 32s14.933333 32 32 32zM825.6 358.4c-17.066667 0-32 14.933333-32 32v273.066667c0 17.066667 14.933333 32 32 32s32-14.933333 32-32V390.4c0-19.2-14.933333-32-32-32z" p-id="2234"></path></svg>