<?xml version="1.0" standalone="no"?><!DOCTYPE svg PUBLIC "-//W3C//DTD SVG 1.1//EN" "http://www.w3.org/Graphics/SVG/1.1/DTD/svg11.dtd"><svg t="1598666994030" class="icon" viewBox="0 0 1024 1024" version="1.1" xmlns="http://www.w3.org/2000/svg" p-id="5067" xmlns:xlink="http://www.w3.org/1999/xlink" width="200" height="200"><defs><style type="text/css"></style></defs><path d="M170.666667 885.333333c-8.533333 0-17.066667-2.133333-23.466667-8.533333-12.8-12.8-12.8-32 0-44.8L821.333333 157.866667c12.8-12.8 32-12.8 44.8 0s12.8 32 0 44.8L194.133333 876.8c-6.4 6.4-14.933333 8.533333-23.466666 8.533333z" p-id="5068"></path><path d="M844.8 885.333333c-8.533333 0-17.066667-2.133333-23.466667-8.533333L147.2 202.666667c-10.666667-12.8-10.666667-32 0-44.8s32-12.8 44.8 0L866.133333 832c12.8 12.8 12.8 32 0 44.8-6.4 6.4-14.933333 8.533333-21.333333 8.533333z" p-id="5069"></path></svg>