<?xml version="1.0" standalone="no"?><!DOCTYPE svg PUBLIC "-//W3C//DTD SVG 1.1//EN" "http://www.w3.org/Graphics/SVG/1.1/DTD/svg11.dtd"><svg t="1598671311417" class="icon" viewBox="0 0 1070 1024" version="1.1" xmlns="http://www.w3.org/2000/svg" p-id="17148" xmlns:xlink="http://www.w3.org/1999/xlink" width="208.984375" height="200"><defs><style type="text/css"></style></defs><path d="M1049.6 339.781818l-69.818182-130.327273c-53.527273-100.072727-158.254545-162.909091-269.963636-162.90909-23.272727 0-41.890909 16.290909-46.545455 39.563636-9.309091 62.836364-62.836364 111.709091-125.672727 111.709091s-118.690909-46.545455-125.672727-111.709091c-2.327273-23.272727-23.272727-39.563636-46.545455-39.563636-116.363636 0-221.090909 62.836364-274.618182 162.90909l-69.818181 130.327273c-23.272727 44.218182-27.927273 95.418182-13.963637 144.290909 16.290909 48.872727 48.872727 86.109091 95.418182 109.381818l32.581818 16.29091V791.272727c0 102.4 83.781818 186.181818 186.181818 186.181818h425.890909c102.4 0 186.181818-83.781818 186.181819-186.181818v-181.527272l32.581818-16.29091c44.218182-23.272727 79.127273-60.509091 95.418182-109.381818 16.290909-48.872727 11.636364-100.072727-11.636364-144.290909z m-76.8 116.363637c-6.981818 23.272727-25.6 44.218182-46.545455 55.854545l-58.181818 30.254545c-16.290909 6.981818-25.6 23.272727-25.6 41.89091v209.454545c0 51.2-41.890909 93.090909-93.090909 93.090909H323.490909c-51.2 0-93.090909-41.890909-93.090909-93.090909v-209.454545c0-18.618182-9.309091-34.909091-25.6-41.89091L146.618182 512c-23.272727-11.636364-39.563636-30.254545-46.545455-53.527273-6.981818-23.272727-4.654545-48.872727 6.981818-72.145454l69.818182-130.327273c32.581818-58.181818 88.436364-100.072727 153.6-109.381818 30.254545 86.109091 114.036364 148.945455 209.454546 148.945454s179.2-60.509091 209.454545-148.945454c65.163636 11.636364 121.018182 51.2 153.6 109.381818l69.818182 130.327273c4.654545 20.945455 6.981818 46.545455 0 69.818182z" fill="#2D3548" p-id="17149"></path><path d="M628.363636 418.909091h-186.181818c-25.6 0-46.545455 20.945455-46.545454 46.545454s20.945455 46.545455 46.545454 46.545455h46.545455v139.636364c0 25.6 20.945455 46.545455 46.545454 46.545454s46.545455-20.945455 46.545455-46.545454v-139.636364h46.545454c25.6 0 46.545455-20.945455 46.545455-46.545455s-20.945455-46.545455-46.545455-46.545454z" fill="#2D3548" p-id="17150"></path></svg>