<?xml version="1.0" standalone="no"?><!DOCTYPE svg PUBLIC "-//W3C//DTD SVG 1.1//EN" "http://www.w3.org/Graphics/SVG/1.1/DTD/svg11.dtd"><svg t="1599642420197" class="icon" viewBox="0 0 1024 1024" version="1.1" xmlns="http://www.w3.org/2000/svg" p-id="1796" xmlns:xlink="http://www.w3.org/1999/xlink" width="200" height="200"><defs><style type="text/css"></style></defs><path d="M516.606 107.93c-82.644 0-149.719 65.518-152.573 147.772H171.371c-21.406 0-38.92 17.385-38.92 38.921 0 21.407 17.385 38.922 38.921 38.922h42.943v435.402c0 81.735 55.399 148.55 123.901 148.55h348.995c68.373 0 123.9-66.426 123.9-148.55V333.805h38.922c21.407 0 38.921-17.386 38.921-38.922 0-21.407-17.385-38.922-38.92-38.922H668.918c-2.466-82.512-69.67-148.03-152.313-148.03z m-79.66 147.772c2.855-42.165 37.236-74.858 79.79-74.858s76.934 32.823 79.4 74.858h-159.19z m-98.86 589.012c-24.261 0-50.987-31.138-50.987-75.767V333.805h450.97v435.53c0 44.5-26.726 75.768-50.988 75.768H338.086v-0.39z m0 0" p-id="1797"></path><path d="M390.37 751.173c17.774 0 32.435-17.774 32.435-40.09V482.356c0-22.315-14.531-40.09-32.434-40.09-17.775 0-32.435 17.775-32.435 40.09v228.729c0 22.184 14.27 40.089 32.435 40.089z m117.414 0c17.774 0 32.434-17.774 32.434-40.09V482.356c0-22.315-14.531-40.09-32.434-40.09-17.774 0-32.435 17.775-32.435 40.09v228.729c0 22.184 14.66 40.089 32.435 40.089z m123.51 0c17.774 0 32.435-17.774 32.435-40.09V482.356c0-22.315-14.53-40.09-32.435-40.09-17.774 0-32.434 17.775-32.434 40.09v228.729c0 22.184 14.141 40.089 32.434 40.089z m0 0" p-id="1798"></path></svg>